<svg width="23" height="23" viewBox="0 0 23 23" fill="none" xmlns="http://www.w3.org/2000/svg">
<path d="M3.23397 19.5515C2.20867 18.5263 1.39529 17.3092 0.840398 15.9697C0.285502 14.6302 0 13.1945 0 11.7446C0 10.2947 0.285502 8.85895 0.840398 7.51943C1.39529 6.17991 2.20867 4.96281 3.23397 3.93763C4.25915 2.91233 5.47625 2.09901 6.81577 1.54411C8.15529 0.989216 9.59104 0.703613 11.0409 0.703613C12.4909 0.703613 13.9265 0.989216 15.266 1.54411C16.6055 2.09901 17.8226 2.91233 18.8478 3.93763C19.8731 4.96281 20.6865 6.17991 21.2414 7.51943C21.7962 8.85895 22.0819 10.2947 22.0819 11.7446C22.0819 13.1945 21.7962 14.6302 21.2414 15.9697C20.6865 17.3092 19.8731 18.5263 18.8478 19.5515C17.8237 20.5777 16.6071 21.3914 15.2676 21.9459C13.9281 22.5005 12.4923 22.7849 11.0426 22.7829C9.59204 22.7852 8.15534 22.5007 6.8151 21.946C5.47485 21.3913 4.2575 20.5771 3.23289 19.5504L3.23397 19.5515ZM4.69793 5.40595C3.01825 7.08961 2.07485 9.37075 2.07485 11.749C2.07485 14.1272 3.01825 16.4084 4.69793 18.092C6.38149 19.7723 8.66289 20.716 11.0415 20.716C13.4201 20.716 15.7015 19.7723 17.385 18.092C19.0647 16.4084 20.008 14.1272 20.008 11.749C20.008 9.37075 19.0647 7.08961 17.385 5.40595C16.5535 4.57077 15.5651 3.9082 14.4767 3.45633C13.3882 3.00446 12.2211 2.7722 11.0426 2.77291C9.86348 2.77075 8.69562 3.00178 7.60617 3.45272C6.51672 3.90366 5.5272 4.56559 4.69456 5.40043L4.69793 5.40595ZM12.7217 14.9004L10.2809 12.4594C10.1763 12.3557 10.0932 12.2324 10.0364 12.0966C9.97957 11.9608 9.95005 11.8151 9.94961 11.6678V6.08933C9.94961 5.79243 10.0676 5.50769 10.2775 5.29775C10.4874 5.08781 10.7722 4.96987 11.0691 4.96987C11.366 4.96987 11.6506 5.08781 11.8606 5.29775C12.0705 5.50769 12.1885 5.79243 12.1885 6.08933V11.1975L14.3005 13.3106C14.4044 13.4144 14.4869 13.5378 14.5431 13.6735C14.5993 13.8092 14.6283 13.9547 14.6283 14.1016C14.6283 14.2485 14.5993 14.394 14.5431 14.5297C14.4869 14.6655 14.4044 14.7888 14.3005 14.8926C14.197 14.9974 14.0737 15.0806 13.9379 15.1374C13.802 15.1943 13.6562 15.2236 13.5089 15.2238C13.3616 15.2235 13.2159 15.1941 13.0801 15.1372C12.9442 15.0804 12.8209 14.9973 12.7173 14.8926L12.7217 14.9004Z" fill="#CACACA"/>
</svg>
