<svg width="19" height="18" viewBox="0 0 19 18" fill="none" xmlns="http://www.w3.org/2000/svg">
<path fill-rule="evenodd" clip-rule="evenodd" d="M13.7177 0C12.0716 0 10.4917 0.7663 9.46049 1.97724C8.4293 0.7663 6.84939 0 5.20327 0C2.28944 0 0 2.28944 0 5.20327C0 8.77933 3.21657 11.6932 8.08872 16.1207L9.46049 17.36L10.8323 16.1112C15.7044 11.6932 18.921 8.77933 18.921 5.20327C18.921 2.28944 16.6315 0 13.7177 0ZM9.55504 14.7114L9.46043 14.806L9.36583 14.7114C4.86263 10.6339 1.89204 7.93764 1.89204 5.20356C1.89204 3.31147 3.31111 1.89239 5.20321 1.89239C6.66013 1.89239 8.0792 2.82898 8.58061 4.12507H10.3497C10.8417 2.82898 12.2607 1.89239 13.7177 1.89239C15.6098 1.89239 17.0288 3.31147 17.0288 5.20356C17.0288 7.93764 14.0582 10.6339 9.55504 14.7114Z" fill="#3673E4"/>
</svg>
