<svg width="25" height="24" viewBox="0 0 25 24" fill="none" xmlns="http://www.w3.org/2000/svg">
<path d="M21.552 23H3.44431C3.19429 23 2.99161 22.799 2.99161 22.551V9.97762H1.45245C1.25663 9.97748 1.0831 9.85246 1.0224 9.66778C0.962257 9.48512 1.02595 9.28475 1.18084 9.16934L12.2266 1.08649C12.3856 0.971172 12.6017 0.971172 12.7607 1.08649L23.8155 9.16934C23.9721 9.28356 24.0376 9.48416 23.9785 9.66778C23.9154 9.86057 23.7299 9.98753 23.5258 9.97762H22.0047V22.551C22.0047 22.799 21.8021 23 21.552 23Z" fill="black" fill-opacity="0.1" stroke="black" stroke-opacity="0.1" stroke-width="0.8"/>
<path d="M15.2143 23H9.78201C9.53199 23 9.32932 22.7989 9.32932 22.5509V13.1209C9.32932 12.8729 9.53199 12.6719 9.78201 12.6719H15.2143C15.4643 12.6719 15.667 12.8729 15.667 13.1209V22.5509C15.667 22.7989 15.4643 23 15.2143 23Z" fill="white" stroke="white" stroke-width="0.8"/>
</svg>
