<svg width="18" height="20" viewBox="0 0 18 20" fill="none" xmlns="http://www.w3.org/2000/svg">
<path d="M13.125 7.61666L4.875 2.85916M0.9975 5.37999L9 10.0092L17.0025 5.37999M9 19.24V9.99999M17.25 13.6667V6.33333C17.2497 6.01183 17.1648 5.69607 17.0039 5.41772C16.843 5.13938 16.6118 4.90824 16.3333 4.74749L9.91667 1.08083C9.63797 0.919916 9.32182 0.835205 9 0.835205C8.67818 0.835205 8.36204 0.919916 8.08333 1.08083L1.66667 4.74749C1.38824 4.90824 1.15698 5.13938 0.99609 5.41772C0.835198 5.69607 0.75033 6.01183 0.75 6.33333V13.6667C0.75033 13.9882 0.835198 14.3039 0.99609 14.5823C1.15698 14.8606 1.38824 15.0917 1.66667 15.2525L8.08333 18.9192C8.36204 19.0801 8.67818 19.1648 9 19.1648C9.32182 19.1648 9.63797 19.0801 9.91667 18.9192L16.3333 15.2525C16.6118 15.0917 16.843 14.8606 17.0039 14.5823C17.1648 14.3039 17.2497 13.9882 17.25 13.6667Z" stroke="black" stroke-opacity="0.1" stroke-width="1.5" stroke-linecap="round" stroke-linejoin="round"/>
</svg>
